<svg xmlns="http://www.w3.org/2000/svg" viewBox="0 0 134.46 32.72"><path d="M21 32.59c-.66-.76-1.42-1.53-2.08-2.29l-1.3-1.42c-.33-.32-.66-.76-1-1.09l-.11-.1c-.44-.44-.88-1-1.31-1.42-.76-.87-1.64-1.75-2.4-2.62l-.33-.32-.21-.22c-.88-1-1.86-2-2.73-2.94s-1.46-1.75-2.23-2.51a18.35 18.35 0 0 1-1.2-1.42c-.32-.33-.65-.76-1-1.09-.11-.11-.22-.33-.43-.43-1.2-1.31-2.4-2.62-3.49-3.93a4.35 4.35 0 0 0-1-1.42.81.81 0 0 1-.18-.43.56.56 0 0 1 .22-.44c1-1 2-1.85 2.94-2.83h.11c1.09-1 2.07-2 3.05-2.94C7.19 2 8.07 1.09 8.94.22A1.56 1.56 0 0 1 9.7 0h34a1.18 1.18 0 0 1 1 .44c1.85 1.74 3.59 3.49 5.45 5.23a5.27 5.27 0 0 0 .87.76c.76.66 1.42 1.31 2.18 2.07a.47.47 0 0 1 .13.64.8.8 0 0 1-.13.13c-1.31 1.52-2.73 2.94-4 4.46l-.11.11c-.22.33-.55.55-.77.88L46 17.33l-.11.11-2.18 2.4c-.77.87-1.53 1.63-2.29 2.51l-.44.54c-.65.76-1.42 1.53-2.07 2.29-1.63 1.74-3.16 3.49-4.69 5.23-.54.65-1.09 1.31-1.74 2-.11.11-.22.22-.33.22s-.22-.11-.32-.22L29 29.21a19 19 0 0 1-1.31-1.52c-.21-.22-.32-.44-.54-.66a.11.11 0 0 0-.11-.11c-.11-.11-.11-.11-.22-.11s-.22.11-.32.22c-1 1.2-2.08 2.29-3.17 3.49-.32.33-.54.65-.76.87s-.65.76-1 1.09c0 .11-.11.11-.22.11a.21.21 0 0 1-.29 0Zm-10.9-29a5.92 5.92 0 0 0-1.2 1.09 2.89 2.89 0 0 1-.66.54L6.65 6.76c-.76.65-1.42 1.31-2.18 2.07 0 .11-.11.11-.11.22s.11.22.11.32c.43.44.87 1 1.31 1.42a4.55 4.55 0 0 0 .76.76l.54.66c1.31 1.52 2.73 3 4.15 4.58l2.61 2.83.11.11a38.45 38.45 0 0 1 2.62 2.94 5.27 5.27 0 0 0 .76.87c.22.22.44.55.65.77.55.65 1.2 1.3 1.75 2A16 16 0 0 0 21 27.69c.1.1.1.1.21.1s.11 0 .22-.1c1-1.09 1.85-2.18 2.84-3.17a.41.41 0 0 0 .07-.58l-.07-.07c-.55-.54-1.09-1.2-1.64-1.74l-.07-.13c-1-1-1.74-2-2.61-2.94-1.42-1.64-2.95-3.27-4.36-4.91l-.33-.33-.76-.82-.44-.43-.44-.44V12L11 9.05c-.11 0-.11 0-.11-.11s0-.11.11-.22c.76-.76 1.74-1.63 2.72-2.61.55-.55 1.2-1.09 1.75-1.64l.11-.11.76-.76v-.11h-5.88c-.11-.11-.21 0-.32.11Zm27.9 1c.22.22.43.33.54.54 1.2 1.2 2.51 2.4 3.82 3.6.22.22.22.33 0 .55a13.53 13.53 0 0 0-1.2 1.41c-.44.55-1 1.09-1.42 1.64-1.74 2-3.38 3.81-4.9 5.45-.77.76-1.42 1.52-2.18 2.4l-2.18 2.39a5.48 5.48 0 0 0-.76 1c-.22.22-.44.55-.66.77s-.22.32 0 .43c1 1.09 2 2.07 2.83 3.16l.22.22c.11 0 .11 0 .22-.22l.11-.21c0-.11.11-.11.11-.22 1.63-1.86 3.27-3.71 5-5.56l.22-.22a22.12 22.12 0 0 0 1.64-1.85c.87-1 1.85-2.07 2.83-3.27l.11-.11c.54-.65 1.09-1.2 1.63-1.85.33-.33.66-.77 1-1.09l.33-.33c1.09-1.2 2.29-2.51 3.38-3.82a.29.29 0 0 0 .33-.25v-.1c0-.11-.11-.22-.22-.44l-3-2.72-.11-.11c-.66-.66-1.31-1.31-2.07-2a1.8 1.8 0 0 0-.77-.44H37a12.3 12.3 0 0 0 1 1.24Zm-17.07-.88c-.33.32-.77.65-1.09 1l-.66.65a20.42 20.42 0 0 0-1.52 1.42l-.11.11-.11.11c-.66.65-1.31 1.2-2 1.85a.24.24 0 0 0-.22.22c0 .11.11.22.11.32.65.66 1.31 1.42 1.85 2.08l.11.1c.65.66 1.31 1.53 2.07 2.29l3.27 3.6c.65.76 1.53 1.64 2.29 2.51a18.42 18.42 0 0 1 1.42 1.63c.11.11.21.22.32.22s.22-.11.33-.22c.44-.54 1-1.09 1.42-1.63l.11-.11c.32-.33.54-.66.87-1l.43-.44c1.75-1.85 3.49-3.92 5.24-5.88a12.51 12.51 0 0 0 1-1.2c.54-.66 1.2-1.31 1.85-2.07.11.1.22 0 .22-.22s0-.22-.22-.33c-1.42-1.31-2.83-2.72-4.25-4l-.11-.11-.33-.33-.54-.54a1.23 1.23 0 0 0-.87-.33H21.69a1 1 0 0 0-.76.3Zm3.92 14.17a19.79 19.79 0 0 0-1.53-1.64c-.21-.22-.21-.33 0-.54.88-1 1.75-1.86 2.62-2.84s2-2.29 3-3.38c.22-.32.22-.43 0-.65-1.2-1.09-2.4-2.29-3.59-3.38-.22-.22-.33-.33-.33-.54h4.14c.44 0 .76.54 1.09.87 1.09 1 2.07 2 3.16 2.94.22.22.11.33 0 .44-.54.65-1.09 1.2-1.63 1.85-1.42 1.63-2.84 3.16-4.25 4.69-.66.76-1.31 1.41-2 2.18-.11.21-.21.21-.32.21a.45.45 0 0 1-.36-.21Z" data-name="Layer 1" style="fill:#c9a236"/><path d="M66.5.19V14.8a4.34 4.34 0 0 1-1.18 3.2A4.36 4.36 0 0 1 62 19.17a4.51 4.51 0 0 1-3.51-1.36 5.32 5.32 0 0 1-1.25-3.76h1.18a4.68 4.68 0 0 0 .9 2.95A3.19 3.19 0 0 0 62 18.08a3 3 0 0 0 2.52-1 3.62 3.62 0 0 0 .76-2.32V.19Zm19 1.05a8.45 8.45 0 0 1 3.25 3.4 10.35 10.35 0 0 1 1.17 5 10.35 10.35 0 0 1-1.17 5A8.54 8.54 0 0 1 85.51 18a9.58 9.58 0 0 1-9.39 0 8.66 8.66 0 0 1-3.27-3.41 10.24 10.24 0 0 1-1.18-5 10.24 10.24 0 0 1 1.18-5 8.57 8.57 0 0 1 3.27-3.4 9.71 9.71 0 0 1 9.39 0Zm-8.72.92a7.39 7.39 0 0 0-2.82 3 9.29 9.29 0 0 0-1 4.48 9.32 9.32 0 0 0 1 4.48 7.45 7.45 0 0 0 2.82 3 8.27 8.27 0 0 0 8 0 7.43 7.43 0 0 0 2.84-3 9.32 9.32 0 0 0 1-4.48 9.29 9.29 0 0 0-1-4.48 7.37 7.37 0 0 0-2.84-3 8.27 8.27 0 0 0-8 0Zm19.68-2V19h-1.2V.19Zm19.75 1.4A8.69 8.69 0 0 1 119.39 6h-1.26a7.22 7.22 0 0 0-2.72-3.51 8.13 8.13 0 0 0-4.74-1.32 7.41 7.41 0 0 0-3.88 1A7.24 7.24 0 0 0 104 5.09a9.59 9.59 0 0 0-1 4.51 9.55 9.55 0 0 0 1 4.48 7.24 7.24 0 0 0 2.79 2.92 7.41 7.41 0 0 0 3.88 1 8.13 8.13 0 0 0 4.74-1.32 7.24 7.24 0 0 0 2.72-3.48h1.26a8.67 8.67 0 0 1-3.17 4.35 9.31 9.31 0 0 1-5.55 1.57 8.82 8.82 0 0 1-4.61-1.12 8.31 8.31 0 0 1-3.16-3.4 10.69 10.69 0 0 1-1.13-5 10.69 10.69 0 0 1 1.13-5 8.33 8.33 0 0 1 3.16-3.41A8.74 8.74 0 0 1 110.67 0a9.25 9.25 0 0 1 5.55 1.59Zm9.68-.39v7.92h7.67v1h-7.66V18h8.47v1h-9.68V.19h9.68v1ZM61.29 25.3V31a1.67 1.67 0 0 1-.48 1.24 1.79 1.79 0 0 1-1.32.47 1.84 1.84 0 0 1-1.41-.53 2.06 2.06 0 0 1-.5-1.47h.47a1.78 1.78 0 0 0 .35 1.14 1.3 1.3 0 0 0 1.08.44 1.23 1.23 0 0 0 1-.38 1.36 1.36 0 0 0 .32-.91v-5.7Zm8.14.4v3.08h3.08v.38h-3.08v3.09h3.41v.4h-3.9V25.3h3.9v.4ZM89 25.3l-2 7.35h-.56L84.33 26l-2.08 6.63h-.56l-2-7.35h.56L82 32l2.09-6.67h.55L86.69 32l1.74-6.67Zm7.69.4v3.08h3.09v.38h-3.11v3.09h3.41v.4h-3.89V25.3h3.89v.4Zm11.25 6.56h2.84v.39h-3.33V25.3h.49Zm14 .39-2.21-3.13h-1.43v3.13h-.48V25.3h2.13a2.69 2.69 0 0 1 1.88.57 2.07 2.07 0 0 1 .61 1.56 2 2 0 0 1-.56 1.47 2.49 2.49 0 0 1-1.62.61l2.24 3.14Zm-3.64-3.51h1.62c1.35 0 2-.57 2-1.7a1.65 1.65 0 0 0-.48-1.27 2.28 2.28 0 0 0-1.55-.44h-1.62Zm16.17-3.84-2.4 4.38v3h-.49v-3l-2.43-4.38h.57l2.1 3.88 2.09-3.88Z" data-name="Layer 2"/></svg>